<?xml version="1.0" encoding="UTF-8"?>
<svg width="16px" height="16px" viewBox="0 0 16 16" version="1.1" xmlns="http://www.w3.org/2000/svg" xmlns:xlink="http://www.w3.org/1999/xlink">
    <!-- Generator: Sketch 52.5 (67469) - http://www.bohemiancoding.com/sketch -->
    <title>访客记录</title>
    <desc>Created with Sketch.</desc>
    <defs>
        <linearGradient x1="50%" y1="127.215539%" x2="50%" y2="-15.9080676%" id="linearGradient-1">
            <stop stop-color="#FFFFFF" stop-opacity="0" offset="0%"></stop>
            <stop stop-color="#FFFFFF" offset="100%"></stop>
        </linearGradient>
    </defs>
    <g id="访客记录" stroke="none" stroke-width="1" fill="none" fill-rule="evenodd">
        <g id="分组-3">
            <rect id="矩形" fill-opacity="0" fill="#FFFFFF" x="0" y="0" width="16" height="16"></rect>
            <path d="M12.9911934,15.1583648 C11.3343392,15.1583648 9.99119343,13.815219 9.99119343,12.1583648 C9.99119343,10.5015105 11.3343392,9.15836476 12.9911934,9.15836476 C14.6480477,9.15836476 15.9911934,10.5015105 15.9911934,12.1583648 C15.9911934,13.815219 14.6480477,15.1583648 12.9911934,15.1583648 Z M13.2525663,12.0608509 L13.2525663,10.7275176 L12.5858997,10.7275176 L12.5858997,12.7275176 L14.5858997,12.7275176 L14.5858997,12.0608509 L13.2525663,12.0608509 Z M14.6,8.49506015 C14.1077109,8.27855094 13.5634876,8.15836476 12.9911934,8.15836476 C10.7820544,8.15836476 8.99119343,9.94922576 8.99119343,12.1583648 C8.99119343,13.0063059 9.25503742,13.792623 9.70510667,14.4396973 L2.1,14.4396973 C1.82385763,14.4396973 1.6,14.2158396 1.6,13.9396973 L1.6,1.93969727 C1.6,1.66355489 1.82385763,1.43969727 2.1,1.43969727 L14.1,1.43969727 C14.3761424,1.43969727 14.6,1.66355489 14.6,1.93969727 L14.6,8.49506015 Z M4,5 L4,6 L12,6 L12,5 L4,5 Z M4,7.49279785 L4,8.49279785 L9,8.49279785 L9,7.49279785 L4,7.49279785 Z M4,10 L4,11 L6,11 L6,10 L4,10 Z" id="合并形状" fill="url(#linearGradient-1)"></path>
        </g>
    </g>
</svg>