<?xml version="1.0" encoding="UTF-8"?>
<svg width="16px" height="16px" viewBox="0 0 16 16" version="1.1" xmlns="http://www.w3.org/2000/svg" xmlns:xlink="http://www.w3.org/1999/xlink">
    <!-- Generator: Sketch 52.5 (67469) - http://www.bohemiancoding.com/sketch -->
    <title>发布规则</title>
    <desc>Created with Sketch.</desc>
    <defs>
        <linearGradient x1="104.014079%" y1="111.215655%" x2="35.6608073%" y2="-15.4638986%" id="linearGradient-1">
            <stop stop-color="#FFFFFF" stop-opacity="0" offset="0%"></stop>
            <stop stop-color="#FFFFFF" offset="100%"></stop>
        </linearGradient>
    </defs>
    <g id="发布规则" stroke="none" stroke-width="1" fill="none" fill-rule="evenodd">
        <g id="icon_geren-copy">
            <rect id="Rectangle-path" fill="#000000" fill-rule="nonzero" opacity="0" x="0" y="0" width="16" height="16"></rect>
            <path d="M14.4138184,9.5 L14.4138184,13.4746761 C14.4138184,14.5792456 13.5183879,15.4746761 12.4138184,15.4746761 L6.09822769,15.4746761 C5.8330112,15.4746761 5.57865729,15.3693193 5.39112091,15.1817829 L1.83065834,11.6213203 C1.2448719,11.0355339 1.2448719,10.0857864 1.83065834,9.5 C2.41644478,8.91421356 3.36619225,8.91421356 3.95197868,9.5 L5.1019043,10.6499256 L5.1019043,4.5 C5.1019043,3.67157288 5.77347717,3 6.6019043,3 C7.43033142,3 8.1019043,3.67157288 8.1019043,4.5 L8.1019043,8.5 L13.4138184,8.5 C13.9661031,8.5 14.4138184,8.94771525 14.4138184,9.5 Z M9.12578207,5.92932584 C9.36519731,5.50747935 9.5019043,5.01970449 9.5019043,4.5 C9.5019043,2.89837423 8.20353007,1.6 6.6019043,1.6 C5.00027852,1.6 3.7019043,2.89837423 3.7019043,4.5 C3.7019043,5.04861876 3.8542461,5.56165618 4.11893473,5.9991173 C4.16488247,6.07505689 4.22640144,6.15942926 4.30349166,6.25223439 C4.57360519,6.57739003 4.5473736,7.05579878 4.24333831,7.34948237 C3.9281031,7.65398454 3.42570669,7.6452837 3.12120451,7.33004849 C3.10892729,7.31733853 3.09707803,7.30422204 3.08567654,7.29072096 C2.97674255,7.1617805 2.88969334,7.04707752 2.82450237,6.94663442 C2.36739182,6.24234054 2.1019043,5.40217423 2.1019043,4.5 C2.1019043,2.01471863 4.11662292,-9.7255537e-14 6.6019043,-9.7255537e-14 C9.08718567,-9.7255537e-14 11.1019043,2.01471863 11.1019043,4.5 C11.1019043,5.37329173 10.8531435,6.18848226 10.4226169,6.87857658 C10.3612716,6.97690736 10.279536,7.08921729 10.1774101,7.21550637 C9.90809093,7.54859589 9.41973849,7.60025684 9.08666835,7.33091372 C9.06906789,7.3166808 9.05209893,7.3016842 9.03581022,7.28596701 C8.73003107,6.99091674 8.69582576,6.51282096 8.95648681,6.17724479 C9.02721136,6.08622773 9.08363762,6.00358381 9.12578207,5.92932584 Z" id="形状" fill="url(#linearGradient-1)"></path>
        </g>
    </g>
</svg>