<?xml version="1.0" encoding="UTF-8"?>
<svg width="100px" height="24px" viewBox="0 0 100 24" version="1.1" xmlns="http://www.w3.org/2000/svg" xmlns:xlink="http://www.w3.org/1999/xlink">
    <!-- Generator: Sketch 52.5 (67469) - http://www.bohemiancoding.com/sketch -->
    <title>一品漫城logo@2x</title>
    <desc>Created with Sketch.</desc>
    <g id="智能访客系统" stroke="none" stroke-width="1" fill="none" fill-rule="evenodd">
        <g id="登录页" transform="translate(-403.000000, -228.000000)">
            <g id="一品漫城logo" transform="translate(403.000000, 228.000000)">
                <g id="分组-6">
                    <rect id="矩形" x="0" y="0" width="100" height="24"></rect>
                    <path d="M10.0540541,4.08200588 C9.73840689,3.78511366 9.30986274,3.60264901 8.83783784,3.60264901 C7.86760787,3.60264901 7.08108108,4.37354944 7.08108108,5.32450331 L7.08108108,11.9470199 C7.08108108,12.8979737 7.86760787,13.6688742 8.83783784,13.6688742 C9.30986274,13.6688742 9.73840689,13.4864095 10.0540541,13.1895173 L10.0540541,16.3178808 L0.0540540541,16.3178808 L0.0540540541,0 L10.0540541,0 L10.0540541,4.08200588 Z M2.43243243,11.1788079 L2.43243243,13.4039735 L4.97297297,13.4039735 C5.71930366,13.4039735 6.32432422,12.8109732 6.32432422,12.0794703 L6.32432432,11.4437086 C6.32432432,10.8289787 5.89811085,10.2928751 5.28994114,10.1426309 C5.12441598,10.1017392 5.05454791,10.0694941 5.08033693,10.0458954 C6.34840144,8.88553435 6.76306391,7.46184735 6.32432432,5.77483444 C5.85585586,3.97350993 4.55855856,2.77262693 2.43243243,2.17218543 L2.43243243,10.013245 L0.756756757,10.013245 L1.51351351,11.1788079 L2.43243243,11.1788079 Z M3.56756757,9.79268419 L3.56756757,3.60264901 C4.64864865,4.55094509 5.18918919,5.57522765 5.18918919,6.67549669 C5.18918919,7.77576573 4.64864865,8.81482823 3.56756757,9.79268419 Z M3.56756757,12.397351 L3.56756757,11.4042322 C3.56756757,11.097001 3.82167622,10.8479408 4.13513514,10.8479408 C4.44859405,10.8479408 4.7027027,11.097001 4.7027027,11.4042322 L4.7027027,12.397351 L3.56756757,12.397351 Z M8.89189189,4.66225166 C9.29491049,4.66225166 9.62162162,4.98247183 9.62162162,5.37748344 L9.62162162,11.8410596 C9.62162162,12.2360712 9.29491049,12.5562914 8.89189189,12.5562914 C8.48887329,12.5562914 8.16216216,12.2360712 8.16216216,11.8410596 L8.16216216,5.37748344 C8.16216216,4.98247183 8.48887329,4.66225166 8.89189189,4.66225166 Z M10.9189189,1.8013245 L18.1081081,1.8013245 L18.1081081,14.7284768 L10.9189189,14.7284768 L10.9189189,1.8013245 Z M13.8378378,3.81456954 L12.5945946,3.81456954 L12.5945946,12 C12.5945946,13.0387342 13.4537239,13.8807947 14.5135135,13.8807947 C15.5733032,13.8807947 16.4324324,13.0387342 16.4324324,12 L16.4324324,3.81456954 L15.1891892,3.81456954 L15.1891892,12.0529801 C15.1891892,12.4187316 14.8866789,12.7152318 14.5135135,12.7152318 C14.1403481,12.7152318 13.8378378,12.4187316 13.8378378,12.0529801 L13.8378378,3.81456954 Z M21.4054054,5.76925758 L22.1081081,5.98675497 L22.1081081,5.03311258 L19.027027,3.97350993 L19.027027,5.03311258 L20.2702703,5.41791565 L20.2702703,12.9458512 L18.7567568,13.4039735 L18.7567568,3.07284768 L22.4324324,4.39735099 L22.4324324,12.2913907 L21.4054054,12.6022594 L21.4054054,5.76925758 Z M25.2432432,3.54966887 L29.1351351,3.54966887 L29.1351351,13.6688742 L25.2432432,13.6688742 L25.2432432,3.54966887 Z M26.5945946,4.66225166 L26.5945946,11.7615894 L27.8378378,11.7615894 L27.8378378,4.66225166 L26.5945946,4.66225166 Z M30.3783784,16.0529801 L30.3783784,0.794701987 L35.4054054,2.59602649 L35.4054054,13.8807947 L30.3783784,16.0529801 Z M31.1891892,11.5496689 L32.5405405,11.1788079 L32.5405405,5.62241308 C32.6126126,5.12358582 32.8288288,4.92715232 33.1891892,5.03311258 C33.5495495,5.13907285 33.7837838,5.36865342 33.8918919,5.7218543 L33.8918919,10.3192777 C33.7117117,11.2454988 33.3513514,11.7994274 32.8108108,11.9810637 C32.2683796,12.1633354 31.9080192,12.2667777 31.7297297,12.2913907 L31.7297297,13.4039735 C32.3063063,13.2626932 32.6666667,13.192053 32.8108108,13.192053 C33.027027,13.192053 33.2432432,13.5574814 33.6216216,13.5574814 L34.8108108,13.5574814 L34.8108108,12.6229822 C34.3783784,12.6229822 34.1081081,12.6007519 34,12.5562914 C33.8918919,12.5118308 33.8018018,12.4235306 33.7297297,12.2913907 C34.37109,11.8638985 34.7314504,11.4129121 34.8108108,10.9384313 C34.9298515,10.2267101 34.8108108,6.51655629 34.8108108,5.82781457 C34.8108108,5.13907285 34.297387,4.1681658 33.1891892,4.02649007 C32.0809914,3.88481433 31.1891892,4.35383899 31.1891892,5.36967094 L31.1891892,11.5496689 Z M35.7837838,13.3119664 C36.1003361,13.9021497 36.7319422,14.3046358 37.4594595,14.3046358 C38.5043225,14.3046358 39.3513514,13.4744353 39.3513514,12.4503311 L39.3513514,12.0794702 L40.1081081,12.0794702 L40.1081081,12.8741722 C40.1081081,13.6056752 40.7131287,14.1986755 41.4594595,14.1986755 L43.5135135,14.1986755 L43.5135135,13.0331126 L41.5675676,13.0331126 C41.4481546,13.0331126 41.3513514,12.9382325 41.3513514,12.8211921 L41.3513514,12.0794702 L43.5135135,12.0794702 L43.5135135,11.0198675 L41.3513514,11.0198675 L41.3513514,5.35099338 L43.5135135,5.35099338 L43.5135135,4.18543046 L40.1081081,4.18543046 L40.1081081,11.0198675 L39.3513514,11.0198675 L39.3513514,4.18543046 L38.1621622,4.18543046 L38.1621622,12.6092715 C38.1621622,12.9896531 37.8475514,13.2980132 37.4594595,13.2980132 C37.0713675,13.2980132 36.7567568,12.9896531 36.7567568,12.6092715 L36.7567568,4.18543046 L35.7837838,4.18543046 L35.7837838,0.794701987 L44,0.794701987 L44,16.6887417 L35.7837838,16.6887417 L35.7837838,13.3119664 Z M29.5675676,20.7682119 L29.5675676,20.397351 L28.8108108,20.397351 L28.8108108,20.7682119 L29.5675676,20.7682119 Z M30.2162162,20.7682119 L31.0810811,20.7682119 L31.0810811,20.397351 L30.2162162,20.397351 L30.2162162,20.7682119 Z M28.1621622,20.7682119 L28.1621622,20.397351 L27.4594595,20.397351 L27.4594595,20.7682119 L28.1621622,20.7682119 Z M42.5945946,23.6291391 L43.6216216,23.6291391 L43.6216216,24 L41.9459459,24 L41.9459459,22.6754967 L43.027027,21.781457 L43.027027,20.2913907 L43.6756757,20.2913907 L43.6756757,21.986755 L42.5945946,22.8476821 L42.5945946,23.6291391 Z M41.9459459,19.0198675 L41.9459459,18.4370861 L42.5945946,18.4370861 L42.5945946,19.0198675 L43.2972973,19.0198675 L43.2972973,18.6490066 L43.4594595,18.6490066 L43.8918919,19.4294288 L42.5945946,19.4294288 L42.5945946,21.7218543 L41.9459459,22.2516556 L41.9459459,19.4294288 L39.6756757,19.4294288 L39.6756757,20.2913907 L41.2432432,20.2913907 L41.2432432,24 L40.5945946,24 L40.5945946,20.7682119 L39.6756757,20.7682119 L39.6756757,24 L39.027027,24 L39.027027,19.0198675 L41.9459459,19.0198675 Z M37.6216216,23.5231788 L37.6216216,20.7682119 L36.5945946,20.7682119 L36.5945946,20.2913907 L37.6216216,20.2913907 L37.6216216,18.4370861 L38.2702703,18.4370861 L38.2702703,24 L36.5945946,24 L36.5945946,23.5231788 L37.6216216,23.5231788 Z M31.7297297,19.9205298 L31.7297297,21.2450331 L26.8108108,21.2450331 L26.8108108,19.9205298 L31.7297297,19.9205298 Z M31.0810811,19.2847682 L31.0810811,18.4370861 L31.7297297,18.4370861 L31.7297297,19.7615894 L26.8108108,19.7615894 L26.8108108,18.4370861 L30.7027027,18.4370861 L30.7027027,18.9139073 L27.4594595,18.9139073 L27.4594595,19.2847682 L31.0810811,19.2847682 Z M16.4864865,19.9735099 L16.4864865,18.0662252 L17.1351351,18.0662252 L17.1351351,20.4503311 L12.6486486,20.4503311 L12.6486486,18.0662252 L16.1081081,18.0662252 L16.1081081,18.5430464 L13.2972973,18.5430464 L13.2972973,19.9735099 L16.4864865,19.9735099 Z M17.7297297,23.4701987 L17.7297297,21.615894 L15.9459459,21.615894 L15.9459459,23.4701987 L17.7297297,23.4701987 Z M18.3783784,21.1390728 L18.3783784,23.9470199 L15.2972973,23.9470199 L15.2972973,21.1390728 L18.3783784,21.1390728 Z M13.8918919,23.4701987 L13.8918919,21.615894 L12.1081081,21.615894 L12.1081081,23.4701987 L13.8918919,23.4701987 Z M14.5405405,21.1390728 L14.5405405,23.9470199 L11.4594595,23.9470199 L11.4594595,21.1390728 L14.5405405,21.1390728 Z M26.8108108,21.9337748 L26.8108108,21.5629139 L31.7297297,21.5629139 L31.7297297,21.9337748 L29.5519937,22.9247787 L31.7162162,24 L30.8648649,24 L29.1310556,23.1163314 L27.1891892,24 L26.3378378,24 L28.7371113,22.9155502 L26.8108108,21.9337748 Z M27.5572855,21.9337748 L29.1540753,22.7270863 L30.9092244,21.9337748 L27.5572855,21.9337748 Z M0,20.7152318 L6.86486486,20.7152318 L6.86486486,21.192053 L0,21.192053 L0,20.7152318 Z M24.7027027,20.0264901 L26.4324324,20.7152318 L25.1891892,24 L24.5405405,24 L25.6555293,21.0580674 L24.7027027,20.4503311 L24.7027027,20.0264901 Z M24.7027027,18.1721854 L26.3783784,19.0728477 L26.1081081,19.6556291 L24.7027027,18.5960265 L24.7027027,18.1721854 Z" id="形状" fill="#FFFFFF"></path>
                    <path d="M94.3351391,12.5050386 L93.7895727,12.4840409 C93.5112069,14.0942398 92.689849,15.2813404 91.3473141,15.9789056 C90.9975244,16.1606521 90.5721835,16.0133174 90.3972886,15.6498243 C90.2223938,15.2863311 90.3641741,14.844327 90.7139638,14.6625804 C91.5867813,14.2090748 92.128292,13.4825347 92.3562552,12.4288753 L91.0044307,12.3768463 C90.6136219,12.3618048 90.3085425,12.0203866 90.3230169,11.6142674 C90.3374913,11.2081481 90.6660383,10.8911169 91.0568472,10.9061584 L97.4298118,11.1514411 C97.8206206,11.1664825 98.1257,11.5079008 98.1112255,11.91402 C98.0967511,12.3201393 97.7682042,12.6371704 97.3773953,12.622129 L95.7513535,12.5595459 L95.7513535,14.6621274 L96.4594606,14.7438883 L96.4594606,14.3396121 C96.4594606,13.9332144 96.776491,13.603764 97.1675678,13.603764 C97.5586446,13.603764 97.875675,13.9332144 97.875675,14.3396121 L97.875675,15.5660257 C97.875675,16.0045995 97.508829,16.3458056 97.0893705,16.2973732 L94.9650489,16.0520905 C94.6064403,16.0106841 94.3351391,15.6956938 94.3351391,15.320743 L94.3351391,12.5050386 Z M71.9428379,9.50733321 L72.0902994,7.17810692 C72.1159726,6.77258587 72.4531314,6.46547372 72.8433646,6.49215274 C73.2335978,6.51883175 73.529132,6.86919913 73.5034588,7.27472018 L73.3575176,9.57993081 L75.3101799,9.68013625 C75.715186,9.70092009 76.0207101,10.0702119 75.9797373,10.4894409 L75.3419221,17.0154955 C75.2317739,18.14252 74.3185882,18.9999836 73.2284727,18.9999836 L72.6788612,18.9999836 C72.2877844,18.9999836 71.970754,18.6705332 71.970754,18.2641355 C71.970754,17.8577378 72.2877844,17.5282874 72.6788612,17.5282874 L73.2284727,17.5282874 C73.5918445,17.5282874 73.8962397,17.2424662 73.9329558,16.8667913 L74.4954108,11.1118141 L73.2645342,11.0486488 L73.2084141,11.9350917 C73.2072332,11.9537447 73.2053687,11.9723442 73.2028248,11.9908497 C72.8695658,14.4150532 71.9888812,16.5069079 70.562994,18.250141 C70.3097137,18.5597914 69.8628316,18.5974445 69.5648548,18.3342417 C69.266878,18.0710389 69.2306443,17.6066496 69.4839246,17.2969992 C70.727812,15.7762719 71.4981225,13.9526641 71.7970509,11.810109 L71.8498544,10.9760512 L70.460605,10.9047586 C70.0700042,10.884714 69.7689965,10.5394152 69.7882854,10.1335121 C69.8075743,9.72760905 70.1398556,9.41480895 70.5304564,9.43485354 L71.9428379,9.50733321 Z M67.7326881,17.5247793 C67.7097947,17.5270998 67.6865818,17.5282874 67.663102,17.5282874 L63.7095036,17.5282874 C63.0935226,17.5282874 62.7712754,16.767495 63.1873111,16.2954449 L66.2899728,12.7750452 L64.7050313,12.619368 C64.1807536,12.5678721 63.8920856,11.9608493 64.1711907,11.4967863 L66.8265926,7.08169753 C67.0338629,6.73707297 67.4707299,6.63230794 67.8023624,6.84769829 C68.1339948,7.06308864 68.2348103,7.51707043 68.02754,7.86169499 L65.9798635,11.2663297 L67.3355087,11.3994848 C67.3843623,11.4042833 67.4315855,11.4141319 67.4767456,11.4284869 L68.3755579,10.4086598 C68.6396926,10.1089625 69.0876095,10.0885218 69.3760085,10.3630042 C69.6644074,10.6374866 69.6840776,11.1029512 69.419943,11.4026486 L65.318247,16.0565911 L67.3302383,16.0565911 L67.0904668,15.1818738 C66.9833296,14.7910238 67.2013795,14.3839229 67.5774947,14.2725885 C67.95361,14.1612541 68.3453635,14.3878463 68.4525006,14.7786964 L69.1931608,17.4807193 C69.3002979,17.8715693 69.0822481,18.2786702 68.7061328,18.3900046 C68.3300175,18.5013389 67.9382641,18.2747467 67.8311269,17.8838967 L67.7326881,17.5247793 Z M71.8008441,11.7827204 C71.7995882,11.7918557 71.7983238,11.8009852 71.7970507,11.8101107 L71.7952547,11.8384784 L71.8008441,11.7827204 Z M78.6977722,6.73584813 C78.6977722,6.32945043 79.0148026,6 79.4058794,6 C79.7969562,6 80.1139866,6.32945043 80.1139866,6.73584813 L80.1139866,11.3962196 C80.1139866,11.4176307 80.1130873,11.4390316 80.1112913,11.4603613 C79.818578,14.9367126 78.8482635,17.26707 77.1286018,18.3957215 C76.7979507,18.612735 76.360613,18.5101126 76.1517807,18.1665078 C75.9429485,17.8229031 76.0417021,17.3684322 76.3723532,17.1514187 C77.638087,16.32069 78.4368949,14.4098679 78.6977722,11.363816 L78.6977722,6.73584813 Z M85.6033479,15.0286423 C85.5776478,14.6231231 85.8731588,14.2727346 86.2633902,14.2460276 C86.6536216,14.2193206 86.9908008,14.5264087 87.0165009,14.9319279 L87.1935277,17.7252129 C87.2204312,18.1497205 86.8963402,18.5094182 86.4869512,18.5094182 L84.309332,18.5094182 C83.4340701,18.5094182 82.7106688,17.8001133 82.6598673,16.8920953 L82.121484,7.2691233 C82.0987853,6.86341071 82.3968803,6.51539388 82.7872978,6.49180594 C83.1777153,6.46821799 83.5126122,6.77799122 83.5353109,7.18370381 L84.0736942,16.8066758 C84.0809515,16.9363927 84.1842946,17.037722 84.309332,17.037722 L85.730675,17.037722 L85.6033479,15.0286423 Z M98.3644235,17.4932384 L98.5682665,8.17277209 L90.0149452,7.75201905 L89.8620627,17.0725027 L98.3644235,17.4932384 Z M88.4343488,17.761029 L88.6113756,6.9685898 C88.6181838,6.55352971 88.9538385,6.22647709 89.3528623,6.24610578 L99.3253717,6.7366712 C99.709239,6.75555431 100.008545,7.08916639 99.9998137,7.48841576 L99.763778,18.280855 C99.7547356,18.6943083 99.4196911,19.0188218 99.0221724,18.9991508 L89.1086719,18.5085853 C88.7264469,18.4896711 88.4278272,18.1586205 88.4343488,17.761029 Z M92.010143,10.4141707 C91.6195542,10.4344652 91.2870876,10.1218778 91.2675581,9.71598715 C91.2480287,9.3100965 91.5488318,8.96460514 91.9394207,8.94431061 L96.6601352,8.6990279 C97.050724,8.67873337 97.3831906,8.99132079 97.4027201,9.39721144 C97.4222495,9.80310209 97.1214464,10.1485935 96.7308575,10.168888 L92.010143,10.4141707 Z" id="合并形状" fill="#FFFFFF" fill-rule="nonzero"></path>
                    <rect id="矩形" stroke="#FFFFFF" fill="#D8D8D8" opacity="0.299944196" x="54.5" y="2.5" width="1" height="19" rx="0.5"></rect>
                </g>
            </g>
        </g>
    </g>
</svg>